<?xml version="1.0" encoding="utf-8"?>
<!-- Generator: Adobe Illustrator 16.0.0, SVG Export Plug-In . SVG Version: 6.00 Build 0)  -->
<!DOCTYPE svg PUBLIC "-//W3C//DTD SVG 1.1//EN" "http://www.w3.org/Graphics/SVG/1.1/DTD/svg11.dtd">
<svg version="1.1" id="Capa_1" xmlns="http://www.w3.org/2000/svg" xmlns:xlink="http://www.w3.org/1999/xlink" x="0px" y="0px"
	 width="400px" height="250px" viewBox="0 0 400 250" enable-background="new 0 0 400 250" xml:space="preserve">
<g>
	<linearGradient id="SVGID_1_" gradientUnits="userSpaceOnUse" x1="31.8804" y1="190.7305" x2="31.8804" y2="166.9834">
		<stop  offset="0" style="stop-color:#F2003A"/>
		<stop  offset="1" style="stop-color:#FFCC00"/>
	</linearGradient>
	<path fill="url(#SVGID_1_)" d="M24.089,167.191h15.582v3.363H29.029v7.678h9.776v3.207h-9.776v9.152h-4.939V167.191z"/>
	<linearGradient id="SVGID_2_" gradientUnits="userSpaceOnUse" x1="50.6255" y1="190.7305" x2="50.6255" y2="166.9844">
		<stop  offset="0" style="stop-color:#F2003A"/>
		<stop  offset="1" style="stop-color:#FFCC00"/>
	</linearGradient>
	<path fill="url(#SVGID_2_)" d="M47.124,167.158h7.003l7.609,23.434h-5.078l-1.768-6.033h-8.511l-1.785,6.033h-5.079L47.124,167.158
		z M54.075,181.301l-3.415-11.248h-0.052l-3.415,11.248H54.075z"/>
	<linearGradient id="SVGID_3_" gradientUnits="userSpaceOnUse" x1="75.1777" y1="190.7305" x2="75.1777" y2="166.9834">
		<stop  offset="0" style="stop-color:#F2003A"/>
		<stop  offset="1" style="stop-color:#FFCC00"/>
	</linearGradient>
	<path fill="url(#SVGID_3_)" d="M64.042,167.191h7.852l9.429,19.639h0.052l0.034-19.639h4.905v23.4h-7.765l-9.533-19.881h-0.07
		v19.881h-4.905V167.191z"/>
	<linearGradient id="SVGID_4_" gradientUnits="userSpaceOnUse" x1="99.0112" y1="190.7305" x2="99.0112" y2="166.9834">
		<stop  offset="0" style="stop-color:#F2003A"/>
		<stop  offset="1" style="stop-color:#FFCC00"/>
	</linearGradient>
	<path fill="url(#SVGID_4_)" d="M96.558,170.555h-7.054v-3.363h19.014v3.363h-7.038v20.037h-4.922V170.555z"/>
	<linearGradient id="SVGID_5_" gradientUnits="userSpaceOnUse" x1="118.3799" y1="190.7305" x2="118.3799" y2="166.9844">
		<stop  offset="0" style="stop-color:#F2003A"/>
		<stop  offset="1" style="stop-color:#FFCC00"/>
	</linearGradient>
	<path fill="url(#SVGID_5_)" d="M114.879,167.158h7.002l7.609,23.434h-5.079l-1.768-6.033h-8.511l-1.786,6.033h-5.078
		L114.879,167.158z M121.829,181.301l-3.415-11.248h-0.052l-3.415,11.248H121.829z"/>
	<linearGradient id="SVGID_6_" gradientUnits="userSpaceOnUse" x1="140.5483" y1="190.7305" x2="140.5483" y2="166.9844">
		<stop  offset="0" style="stop-color:#F2003A"/>
		<stop  offset="1" style="stop-color:#FFCC00"/>
	</linearGradient>
	<path fill="url(#SVGID_6_)" d="M132.723,188.555c-1.393-1.449-2.089-3.619-2.089-6.508h4.922c0,2.264,0.445,3.721,1.335,4.367
		c0.89,0.648,2.12,0.971,3.692,0.971c1.56,0,2.788-0.26,3.683-0.779c0.896-0.52,1.344-1.277,1.344-2.271
		c0-1.189-0.581-2.014-1.742-2.469c-1.161-0.457-2.782-0.904-4.862-1.344c-3.074-0.693-5.235-1.479-6.482-2.357
		c-1.248-0.879-1.872-2.307-1.872-4.281c0-1.895,0.713-3.518,2.141-4.871c1.427-1.352,4.012-2.027,7.756-2.027
		c3.778,0,6.373,0.744,7.782,2.236c1.41,1.49,2.115,3.6,2.115,6.326h-4.94c0-2.207-0.457-3.629-1.37-4.264
		c-0.913-0.637-2.126-0.955-3.64-0.955c-1.583,0-2.826,0.273-3.727,0.816c-0.901,0.543-1.352,1.27-1.352,2.184
		c0,1.189,0.592,2.016,1.777,2.479c1.184,0.463,2.799,0.918,4.844,1.369c3.166,0.705,5.362,1.461,6.586,2.271
		c1.225,0.809,1.837,2.211,1.837,4.211c0,1.965-0.697,3.635-2.089,5.01s-3.978,2.063-7.756,2.063
		C136.747,190.73,134.115,190.006,132.723,188.555z"/>
	<linearGradient id="SVGID_7_" gradientUnits="userSpaceOnUse" x1="163.7222" y1="190.7305" x2="163.7222" y2="166.9834">
		<stop  offset="0" style="stop-color:#F2003A"/>
		<stop  offset="1" style="stop-color:#FFCC00"/>
	</linearGradient>
	<path fill="url(#SVGID_7_)" d="M161.26,181.666l-8.666-14.475h5.355l5.771,10.574h0.035l5.737-10.574h5.356l-8.667,14.49v8.91
		h-4.923V181.666z"/>
	<linearGradient id="SVGID_8_" gradientUnits="userSpaceOnUse" x1="194.3716" y1="190.7305" x2="194.3716" y2="166.9844">
		<stop  offset="0" style="stop-color:#F2003A"/>
		<stop  offset="1" style="stop-color:#FFCC00"/>
	</linearGradient>
	<path fill="url(#SVGID_8_)" d="M199.098,180.66c1.399-0.277,2.403-0.82,3.007-1.721c0.872-1.301,1.308-2.879,1.308-4.785
		c0-1.93-0.418-3.459-1.254-4.82c-0.839-1.363-2.495-1.928-4.967-1.928H185v23h5v-10h4.141l4.265,10h5.337L199.098,180.66z
		 M190,170.406h5.597c1.085,0,1.838,0.4,2.254,1.053c0.416,0.654,0.624,1.588,0.624,2.734c0,1.131-0.205,1.801-0.616,2.455
		c-0.411,0.65-1.164,0.758-2.262,0.758H190V170.406z"/>
	<linearGradient id="SVGID_9_" gradientUnits="userSpaceOnUse" x1="215.6162" y1="190.7305" x2="215.6162" y2="166.9834">
		<stop  offset="0" style="stop-color:#F2003A"/>
		<stop  offset="1" style="stop-color:#FFCC00"/>
	</linearGradient>
	<path fill="url(#SVGID_9_)" d="M206.309,167.191h11.699c2.796,0,4.648,0.811,5.556,2.428c0.907,1.617,1.36,3.621,1.36,6.014
		c0,2.404-0.457,4.418-1.369,6.041c-0.914,1.623-2.762,2.436-5.547,2.436h-6.777v6.482h-4.922V167.191z M216.535,180.729
		c1.282,0,2.187-0.412,2.712-1.238c0.525-0.826,0.789-2.105,0.789-3.84c0-1.732-0.266-3.016-0.797-3.848s-1.433-1.248-2.704-1.248
		h-5.304v10.174H216.535z"/>
	<linearGradient id="SVGID_10_" gradientUnits="userSpaceOnUse" x1="237.4028" y1="190.7305" x2="237.4028" y2="166.9844">
		<stop  offset="0" style="stop-color:#F2003A"/>
		<stop  offset="1" style="stop-color:#FFCC00"/>
	</linearGradient>
	<path fill="url(#SVGID_10_)" d="M229.482,187.758c-1.444-1.982-2.167-4.961-2.167-8.936c0-4.021,0.74-7,2.219-8.936
		c1.479-1.934,4.166-2.902,8.06-2.902c3.674,0,6.225,0.879,7.652,2.635c1.427,1.756,2.175,3.836,2.244,6.238h-4.922
		c-0.092-2.01-0.522-3.432-1.291-4.262c-0.769-0.834-1.991-1.248-3.666-1.248c-1.733,0-3.054,0.51-3.961,1.533
		s-1.361,3.389-1.361,7.098c0,3.316,0.454,5.543,1.361,6.682s2.238,1.707,3.995,1.707c1.629,0,2.813-0.34,3.553-1.023
		c0.739-0.682,1.155-1.824,1.248-3.43v-1.197h-4.438v-2.93h9.481v11.805h-2.79l-0.538-3.172c-0.959,2.184-3.288,3.287-6.985,3.311
		C233.492,190.73,230.926,189.74,229.482,187.758z"/>
	<linearGradient id="SVGID_11_" gradientUnits="userSpaceOnUse" x1="269.6069" y1="190.7305" x2="269.6069" y2="166.9844">
		<stop  offset="0" style="stop-color:#F2003A"/>
		<stop  offset="1" style="stop-color:#FFCC00"/>
	</linearGradient>
	<path fill="url(#SVGID_11_)" d="M261.686,187.758c-1.444-1.982-2.167-4.961-2.167-8.936c0-4.021,0.739-7,2.219-8.936
		c1.479-1.934,4.165-2.902,8.06-2.902c3.674,0,6.225,0.879,7.652,2.635s2.175,3.836,2.245,6.238h-4.923
		c-0.092-2.01-0.522-3.432-1.291-4.262c-0.769-0.834-1.99-1.248-3.666-1.248c-1.733,0-3.053,0.51-3.96,1.533
		c-0.907,1.023-1.361,3.389-1.361,7.098c0,3.316,0.454,5.543,1.361,6.682c0.907,1.139,2.238,1.707,3.995,1.707
		c1.629,0,2.813-0.34,3.553-1.023c0.74-0.682,1.155-1.824,1.248-3.43v-1.197h-4.438v-2.93h9.481v11.805h-2.791l-0.537-3.172
		c-0.959,2.184-3.288,3.287-6.985,3.311C265.696,190.73,263.13,189.74,261.686,187.758z"/>
	<linearGradient id="SVGID_12_" gradientUnits="userSpaceOnUse" x1="293.5435" y1="190.7305" x2="293.5435" y2="166.9844">
		<stop  offset="0" style="stop-color:#F2003A"/>
		<stop  offset="1" style="stop-color:#FFCC00"/>
	</linearGradient>
	<path fill="url(#SVGID_12_)" d="M290.042,167.158h7.002l7.609,23.434h-5.079l-1.768-6.033h-8.51l-1.785,6.033h-5.078
		L290.042,167.158z M296.993,181.301l-3.415-11.248h-0.052l-3.415,11.248H296.993z"/>
	<linearGradient id="SVGID_13_" gradientUnits="userSpaceOnUse" x1="320.1587" y1="190.7305" x2="320.1587" y2="166.9834">
		<stop  offset="0" style="stop-color:#F2003A"/>
		<stop  offset="1" style="stop-color:#FFCC00"/>
	</linearGradient>
	<path fill="url(#SVGID_13_)" d="M306.959,167.191h7.99l5.183,18.98h0.052l5.182-18.98h7.991v23.4h-4.871V170.59h-0.069l-5.373,19.1
		h-5.79l-5.355-19.1h-0.069v20.002h-4.871V167.191z"/>
	<linearGradient id="SVGID_14_" gradientUnits="userSpaceOnUse" x1="345.0654" y1="190.7305" x2="345.0654" y2="166.9834">
		<stop  offset="0" style="stop-color:#F2003A"/>
		<stop  offset="1" style="stop-color:#FFCC00"/>
	</linearGradient>
	<path fill="url(#SVGID_14_)" d="M336.841,167.191h16.449v3.363h-11.526v6.535h10.764v3.205h-10.764v6.934h11.526v3.363h-16.449
		V167.191z"/>
	<linearGradient id="SVGID_15_" gradientUnits="userSpaceOnUse" x1="365.9604" y1="190.7305" x2="365.9604" y2="166.9844">
		<stop  offset="0" style="stop-color:#F2003A"/>
		<stop  offset="1" style="stop-color:#FFCC00"/>
	</linearGradient>
	<path fill="url(#SVGID_15_)" d="M358.135,188.555c-1.393-1.449-2.089-3.619-2.089-6.508h4.922c0,2.264,0.445,3.721,1.335,4.367
		c0.89,0.648,2.12,0.971,3.691,0.971c1.561,0,2.788-0.26,3.684-0.779s1.343-1.277,1.343-2.271c0-1.189-0.581-2.014-1.742-2.469
		c-1.162-0.457-2.782-0.904-4.862-1.344c-3.074-0.693-5.234-1.479-6.482-2.357s-1.872-2.307-1.872-4.281
		c0-1.895,0.713-3.518,2.141-4.871c1.427-1.352,4.013-2.027,7.756-2.027c3.779,0,6.373,0.744,7.783,2.236
		c1.409,1.49,2.114,3.6,2.114,6.326h-4.94c0-2.207-0.457-3.629-1.369-4.264c-0.913-0.637-2.126-0.955-3.641-0.955
		c-1.583,0-2.825,0.273-3.726,0.816c-0.901,0.543-1.352,1.27-1.352,2.184c0,1.189,0.592,2.016,1.776,2.479
		c1.185,0.463,2.8,0.918,4.845,1.369c3.166,0.705,5.361,1.461,6.587,2.271c1.225,0.809,1.837,2.211,1.837,4.211
		c0,1.965-0.696,3.635-2.088,5.01c-1.393,1.375-3.978,2.063-7.756,2.063C362.159,190.73,359.527,190.006,358.135,188.555z"/>
</g>
<g>
	<path fill="#FFFFFF" d="M72.266,108.859c-1.182-3.646-3.831-5.592-7.951-5.836c4.12-0.143,6.637-1.912,7.552-5.309
		c0.916-3.4,1.375-6.861,1.375-10.383c0-3.309-0.545-7.24-1.638-11.148C70.511,72.275,66.27,70,58.872,70H28.246l0,0h-7.593
		c0,0,3.195,1.643,4.977,3.721c1.78,2.076,3.37,4.918,3.37,5.84V142h30.295c7.677,0,12.053-2.143,13.127-6.389
		c1.075-4.24,1.612-9.123,1.612-14.617C74.035,116.557,73.445,112.504,72.266,108.859z M44,81h9.748c1.587,0,2.589,1,3.012,2.32
		s0.634,3.35,0.634,5.742c0,2.609-0.23,4.822-0.687,6.424C56.248,97.092,55.158,98,53.432,98H44V81z M57.604,128.209
		c-0.388,1.797-1.407,2.791-3.063,2.791H44v-23h10.012c1.904,0,3.073,1.191,3.514,3.164c0.441,1.973,0.662,4.902,0.662,8.496
		C58.188,123.463,57.992,126.414,57.604,128.209z"/>
	<path fill="#FFFFFF" d="M132.934,59.27h15.689v82.686h-15.689V59.27z"/>
	<path fill="#FFFFFF" d="M172.288,78.246v11.676h-15.742V78.246H172.288z M156.545,96.525h15.742v45.43h-15.742V96.525z"/>
	<path fill="#FFFFFF" d="M227.703,70l-12.942,72h-23.14l-12.942-72h16.111l8.349,60h0.158l7.353-52.885
		c-0.507-1.064-1.217-2.525-2.102-3.557C206.764,71.48,203.953,70,203.953,70s5.727,0,7.636,0C215.618,70,227.703,70,227.703,70z"/>
	<path fill="#FFFFFF" d="M277.042,110.094c0-9.824-1.11-17.545-3.329-23.32c-2.324-5.738-8.944-8.568-19.863-8.568
		c-10.707,0-17.238,2.893-19.598,8.631c-2.429,5.705-3.646,13.517-3.646,23.411c0,9.439,1.161,17.175,3.557,23.198
		c2.325,5.986,8.82,8.983,19.722,8.983c5.578,0,9.563-0.687,12.451-2.06c2.852-1.34,5.105-3.433,6.726-6.284
		c1.62-2.82,2.632-6.833,3.022-12.044l-14.837-2.221c-0.352,2.572-0.775,4.844-1.27,6.814c-0.563,1.938-1.374,3.258-2.358,3.965
		c-0.951,0.703-2.213,1.055-3.734,1.055c-2.535,0-4.525-1.52-5.829-4.234c-1.064-2.133-1.671-6.42-1.888-12.42h30.714
		C276.988,114,277.042,111.891,277.042,110.094z M246.16,105c0.205-7,0.852-10.244,1.932-12.295
		c1.374-2.568,3.293-3.744,5.758-3.744c2.606,0,4.51,1.049,5.707,3.48c0.916,2.182,1.478,5.559,1.691,12.559H246.16z"/>
	<path fill="#FFFFFF" d="M327,107.566V142h-15v-34.91c0-7.186-0.734-11.895-1.579-14.133c-0.847-2.236-2.463-3.354-4.542-3.354
		c-2.111,0-3.783,1.182-5.154,3.539C299.839,94.66,300,96.52,299,98.723V142h-15V87.025c0-0.195-0.652-0.682-0.765-0.938
		c-0.502-1.164-1.583-3.006-2.701-4.311C278.751,79.699,275.7,78,275.7,78h19.248l2.3,6.137c3.922-4.098,8.917-5.91,14.973-5.91
		c6.729,0,10.868,2.986,12.438,8.727C326.22,92.695,327,99.641,327,107.566z"/>
	<path fill="#FFFFFF" d="M379.311,110.094c0-9.824-1.11-17.545-3.328-23.32c-2.325-5.738-8.947-8.568-19.864-8.568
		c-10.706,0-17.239,2.893-19.597,8.631c-2.431,5.705-3.646,13.517-3.646,23.411c0,9.439,1.24,17.175,3.636,23.198
		c2.322,5.986,8.896,8.983,19.797,8.983c5.324,0,9.485-0.687,12.37-2.06c2.852-1.34,5.068-3.433,6.69-6.284
		c1.618-2.82,2.611-6.833,3-12.044l-14.854-2.221c-0.352,2.572-0.773,4.844-1.268,6.814c-0.562,1.938-1.298,3.258-2.281,3.965
		c-0.951,0.703-2.135,1.055-3.656,1.055c-2.789,0-4.604-1.52-5.904-4.234c-1.065-2.133-1.749-6.42-1.967-12.42h30.715
		C379.258,114,379.311,111.891,379.311,110.094z M348.429,105c0.206-7,0.852-10.244,1.932-12.295
		c1.375-2.568,3.294-3.744,5.758-3.744c2.606,0,4.508,1.049,5.704,3.48c0.918,2.182,1.481,5.559,1.691,12.559H348.429z"/>
	<path fill="#FFFFFF" d="M122.606,86.674c-2.411-5.619-8.952-8.428-19.623-8.428c-10.638,0-17.168,2.809-19.6,8.428
		c-2.429,5.617-3.646,13.479-3.646,23.584c0,10.072,1.217,17.945,3.646,23.613c2.432,5.672,8.962,8.506,19.6,8.506
		c10.671,0,17.212-2.834,19.623-8.506c2.414-5.668,3.621-13.541,3.621-23.613C126.227,100.152,125.02,92.291,122.606,86.674z
		 M108.861,127.691c-1.304,2.395-3.301,3.592-5.765,3.592c-2.432,0-4.354-1.197-5.657-3.592c-1.303-2.395-1.983-8.188-1.983-17.381
		c0-9.189,0.637-14.982,1.941-17.379c1.303-2.395,3.162-3.592,5.593-3.592c2.464,0,4.344,0.975,5.647,3.369
		c1.054,1.941,1.68,5.291,1.88,12.291h-8.229c0,0,3.545,1.508,5.328,3.588c1.603,1.867,3.384,4.738,3.384,5.518v0.004
		C111,121.119,109.975,125.645,108.861,127.691z"/>
</g>
</svg>
